<?xml version="1.0" encoding="UTF-8"?>
<svg version="1.1" xmlns="http://www.w3.org/2000/svg" width="79" height="95">
<path d="M0 0 C2.33081055 0.10546875 2.33081055 0.10546875 5 1 C6.90942383 3.30078125 6.90942383 3.30078125 8.70703125 6.3125 C9.37669922 7.38757813 10.04636719 8.46265625 10.73632812 9.5703125 C12.12319395 11.84857172 13.48944345 14.13752411 14.85351562 16.4296875 C18.13835682 22.19412471 18.13835682 22.19412471 23.29443359 25.97265625 C25.71860884 26.34896635 25.71860884 26.34896635 29 26 C29.59487775 48.47265102 27.97582826 69.68128808 25 92 C3.22 92 -18.56 92 -41 92 C-41.99 83.13125 -42.98 74.2625 -44 65.125 C-44.31324219 62.34465332 -44.62648438 59.56430664 -44.94921875 56.69970703 C-45.19574448 54.46912322 -45.44186491 52.23849456 -45.6875 50.0078125 C-45.81705078 48.87142334 -45.94660156 47.73503418 -46.08007812 46.56420898 C-47.50945511 33.47576694 -47.50945511 33.47576694 -47 27 C-46.67 26.67 -46.34 26.34 -46 26 C-45.02160156 26.03480469 -45.02160156 26.03480469 -44.0234375 26.0703125 C-34.65486066 26.26376394 -29.13685539 21.17084087 -22.19042969 15.67480469 C-18.12495839 12.56634134 -13.86587662 9.73679456 -9.625 6.875 C-7.99158417 5.76911978 -6.3587236 4.66241873 -4.7265625 3.5546875 C-4.03127441 3.08530762 -3.33598633 2.61592773 -2.61962891 2.13232422 C-1.03972296 1.09784409 -1.03972296 1.09784409 0 0 Z M-3.44921875 11.23046875 C-4.13306641 11.70419922 -4.81691406 12.17792969 -5.52148438 12.66601562 C-6.23626953 13.16810547 -6.95105469 13.67019531 -7.6875 14.1875 C-8.38294922 14.67025391 -9.07839844 15.15300781 -9.79492188 15.65039062 C-11.86857697 17.09284912 -13.93449103 18.5459093 -16 20 C-16.68658691 20.47646973 -17.37317383 20.95293945 -18.08056641 21.44384766 C-19.73833122 22.60399079 -21.37186112 23.79863409 -23 25 C-23 25.33 -23 25.66 -23 26 C-11.45 26 0.1 26 12 26 C10.28857862 21.72144656 8.52537827 18.48949412 6 14.6875 C5.29875 13.61886719 4.5975 12.55023438 3.875 11.44921875 C3.25625 10.64097656 2.6375 9.83273437 2 9 C-0.54405315 9 -1.37394463 9.78345622 -3.44921875 11.23046875 Z M-40 33 C-39.17702788 44.67876398 -39.17702788 44.67876398 -38.0625 56.3203125 C-37.97750244 57.1122702 -37.89250488 57.90422791 -37.80493164 58.72018433 C-37.62804038 60.36176848 -37.44990403 62.00321896 -37.27050781 63.64453125 C-36.99663742 66.15583381 -36.7285828 68.66771466 -36.4609375 71.1796875 C-36.28680221 72.78909974 -36.11233554 74.39847618 -35.9375 76.0078125 C-35.85830322 76.75257843 -35.77910645 77.49734436 -35.69750977 78.26467896 C-35.32777514 81.61280441 -34.81944001 84.72223998 -34 88 C-16.84 88 0.32 88 18 88 C19.11620111 85.76759777 19.30148204 84.13879317 19.57250977 81.66137695 C19.67253799 80.76316727 19.77256622 79.86495758 19.87562561 78.93952942 C20.03193703 77.47866158 20.03193703 77.47866158 20.19140625 75.98828125 C20.30097153 74.98669479 20.4105368 73.98510834 20.52342224 72.95317078 C20.75473812 70.82909399 20.98409848 68.70480349 21.21166992 66.58032227 C21.55926669 63.34261676 21.91491864 60.10586918 22.27148438 56.86914062 C22.49527996 54.80474038 22.71860236 52.74028876 22.94140625 50.67578125 C23.04763809 49.71199051 23.15386993 48.74819977 23.26332092 47.75520325 C23.40863503 46.38424751 23.40863503 46.38424751 23.55688477 44.9855957 C23.64269302 44.18998734 23.72850128 43.39437897 23.81690979 42.57466125 C24.04333837 39.39056482 24 36.19213722 24 33 C2.88 33 -18.24 33 -40 33 Z " fill="#848484" transform="translate(50,3)"/>
<path d="M0 0 C2.0625 0.25 2.0625 0.25 4 1 C5.9943416 4.9886832 5.18485036 10.05234082 5.1875 14.4375 C5.19974609 15.50033203 5.21199219 16.56316406 5.22460938 17.65820312 C5.22654297 18.67720703 5.22847656 19.69621094 5.23046875 20.74609375 C5.23457764 21.68122803 5.23868652 22.6163623 5.24291992 23.57983398 C5 26 5 26 3 29 C1.35 28.67 -0.3 28.34 -2 28 C-2.05783842 23.70838953 -2.0935412 19.41687855 -2.125 15.125 C-2.14175781 13.90167969 -2.15851562 12.67835937 -2.17578125 11.41796875 C-2.18222656 10.25136719 -2.18867187 9.08476563 -2.1953125 7.8828125 C-2.20578613 6.80402832 -2.21625977 5.72524414 -2.22705078 4.61376953 C-2 2 -2 2 0 0 Z " fill="#848484" transform="translate(50,50)"/>
<path d="M0 0 C2.0625 0.25 2.0625 0.25 4 1 C5.9943416 4.9886832 5.18485036 10.05234082 5.1875 14.4375 C5.19974609 15.50033203 5.21199219 16.56316406 5.22460938 17.65820312 C5.22654297 18.67720703 5.22847656 19.69621094 5.23046875 20.74609375 C5.23457764 21.68122803 5.23868652 22.6163623 5.24291992 23.57983398 C5 26 5 26 3 29 C1.35 28.67 -0.3 28.34 -2 28 C-2.05783842 23.70838953 -2.0935412 19.41687855 -2.125 15.125 C-2.14175781 13.90167969 -2.15851562 12.67835937 -2.17578125 11.41796875 C-2.18222656 10.25136719 -2.18867188 9.08476563 -2.1953125 7.8828125 C-2.20578613 6.80402832 -2.21625977 5.72524414 -2.22705078 4.61376953 C-2 2 -2 2 0 0 Z " fill="#848484" transform="translate(32,50)"/>
</svg>
