<?xml version="1.0" encoding="UTF-8"?>
<svg version="1.1" xmlns="http://www.w3.org/2000/svg" width="73" height="70">
<path d="M0 0 C1.31791534 -0.0030011 2.63583069 -0.0060022 3.99368286 -0.00909424 C5.43312979 0.00290971 6.87257279 0.01539261 8.31201172 0.02832031 C9.78506274 0.03137782 11.25811665 0.033254 12.73117065 0.03399658 C15.81633589 0.03859813 18.90123988 0.05302041 21.98632812 0.07519531 C25.94892668 0.10352725 29.91131986 0.11441185 33.87401009 0.11887741 C36.91423615 0.12302515 39.95442034 0.13283638 42.99462509 0.1447525 C44.45632465 0.1504648 45.91802826 0.15522032 47.37973404 0.15901947 C49.41724295 0.16586169 51.45472176 0.18038807 53.4921875 0.1953125 C55.23400803 0.2055545 55.23400803 0.2055545 57.01101685 0.21600342 C59.61669922 0.35644531 59.61669922 0.35644531 60.61669922 1.35644531 C60.71029112 3.0750994 60.73414533 4.79760275 60.73022461 6.51879883 C60.73011131 8.17039757 60.73011131 8.17039757 60.72999573 9.85536194 C60.72483444 11.05325851 60.71967316 12.25115509 60.71435547 13.48535156 C60.71294052 14.70471909 60.71152557 15.92408661 60.71006775 17.18040466 C60.70444889 21.09327601 60.69189318 25.00609112 60.67919922 28.91894531 C60.67418665 31.56412678 60.66962332 34.20930914 60.66552734 36.85449219 C60.65447333 43.35516257 60.63771686 49.85579993 60.61669922 56.35644531 C57.55826312 57.37592401 55.56695673 57.45826457 52.37011719 57.41894531 C50.76231888 57.40528931 50.76231888 57.40528931 49.12203979 57.39135742 C47.38302902 57.37407593 47.38302902 57.37407593 45.60888672 57.35644531 C43.15315748 57.35528655 40.69742597 57.35666984 38.24169922 57.36035156 C34.37002269 57.36476457 30.50076152 57.35656561 26.62939453 57.30517578 C22.89218675 57.25976331 19.15873031 57.27188148 15.42138672 57.29394531 C14.27419159 57.26623047 13.12699646 57.23851562 11.94503784 57.20996094 C5.39215336 57.30676196 2.15047843 58.14436295 -2.49609375 62.92285156 C-3.18105927 63.74857666 -3.86602478 64.57430176 -4.57174683 65.42504883 C-5.16955963 66.06240967 -5.76737244 66.69977051 -6.38330078 67.35644531 C-7.37330078 67.35644531 -8.36330078 67.35644531 -9.38330078 67.35644531 C-9.4527792 59.06372622 -9.50610079 50.77112852 -9.5387373 42.47819042 C-9.55440039 38.62752701 -9.57565001 34.77706256 -9.60961914 30.92651367 C-9.64219024 27.21123102 -9.66014895 23.49613988 -9.66793251 19.78072548 C-9.67348012 18.36251116 -9.68431322 16.94430744 -9.70049095 15.52617455 C-9.72223268 13.54156064 -9.72352591 11.55675445 -9.72387695 9.57202148 C-9.73053879 8.44173019 -9.73720062 7.3114389 -9.74406433 6.14689636 C-9.38330078 3.35644531 -9.38330078 3.35644531 -8.26097107 1.49024963 C-5.48068099 -0.18858873 -3.23294466 -0.01013594 0 0 Z M-4.38330078 5.35644531 C-4.38330078 22.51644531 -4.38330078 39.67644531 -4.38330078 57.35644531 C-2.73330078 56.03644531 -1.08330078 54.71644531 0.61669922 53.35644531 C3.33049011 52.85092163 3.33049011 52.85092163 6.29321289 52.84228516 C7.40754196 52.82902191 8.52187103 52.81575867 9.66996765 52.80209351 C10.86281876 52.80713898 12.05566986 52.81218445 13.28466797 52.81738281 C14.5158284 52.8055899 15.74698883 52.793797 17.01545715 52.78164673 C20.94516671 52.74634793 24.87434395 52.73721003 28.80419922 52.73144531 C32.74457992 52.71718637 36.68480583 52.69317863 40.62507629 52.65982056 C43.07674477 52.64010115 45.52852345 52.63086521 47.98027039 52.63290405 C49.08514297 52.62594513 50.19001556 52.61898621 51.32836914 52.61181641 C52.30368088 52.61055756 53.27899261 52.60929871 54.28385925 52.60800171 C56.80886507 52.58242711 56.80886507 52.58242711 58.61669922 50.35644531 C58.91487215 48.38452872 58.91487215 48.38452872 58.85961914 46.10620117 C58.86269577 45.22866684 58.8657724 44.35113251 58.86894226 43.44700623 C58.86175674 42.49801956 58.85457123 41.5490329 58.84716797 40.57128906 C58.84670975 39.59986465 58.84625153 38.62844025 58.84577942 37.62757874 C58.84275545 35.57226339 58.83486487 33.51695036 58.82250977 31.46166992 C58.80425425 28.30346626 58.80200003 25.14555559 58.80224609 21.98730469 C58.79733104 19.99446359 58.79150277 18.0016245 58.78466797 16.00878906 C58.78355515 15.05777817 58.78244232 14.10676727 58.78129578 13.12693787 C58.77491592 12.25255569 58.76853607 11.37817352 58.76196289 10.47729492 C58.75815109 9.70389267 58.75433929 8.93049042 58.75041199 8.13365173 C58.80905328 6.33144511 58.80905328 6.33144511 57.61669922 5.35644531 C55.68363424 5.26248474 53.74711084 5.23901014 51.81176758 5.24291992 C50.57055649 5.24299545 49.3293454 5.24307098 48.05052185 5.2431488 C46.68586182 5.24825621 45.3212022 5.25347221 43.95654297 5.25878906 C42.56791739 5.26065331 41.17929115 5.26207718 39.79066467 5.26307678 C36.12948807 5.26690145 32.46835092 5.27673128 28.80718994 5.28778076 C25.07377669 5.29799599 21.34035689 5.30262934 17.60693359 5.30761719 C10.27682059 5.31782342 2.94681602 5.33739505 -4.38330078 5.35644531 Z " fill="#848484" transform="translate(12.38330078125,2.6435546875)"/>
<path d="M0 0 C1.65 0 3.3 0 5 0 C5 8.25 5 16.5 5 25 C3.35 25 1.7 25 0 25 C0 16.75 0 8.5 0 0 Z " fill="#838383" transform="translate(37,12)"/>
<path d="M0 0 C2.0625 0.4375 2.0625 0.4375 4 1 C3.67 2.65 3.34 4.3 3 6 C1.35 5.67 -0.3 5.34 -2 5 C-1.125 1.125 -1.125 1.125 0 0 Z " fill="#848484" transform="translate(38,43)"/>
</svg>
