<?xml version="1.0" encoding="UTF-8"?>
<svg version="1.1" xmlns="http://www.w3.org/2000/svg" width="65" height="65">
<path d="M0 0 C8.28916302 3.79136539 14.25886944 9.67403392 18 18 C21.12901717 29.13797967 21.02401084 41.69226424 15.78515625 52.1953125 C11.57856522 58.4529062 6.49702858 61.24217587 -0.80566406 62.82470703 C-12.89219489 64.69991553 -28.3347611 65.40715058 -38.73071289 58.07543945 C-46.08251246 51.23340508 -47.64777305 42.41917433 -48.0625 32.6875 C-47.8272169 22.55992762 -45.74972477 14.69191929 -38.75 7.1875 C-27.96503154 -2.7215432 -13.7352752 -4.21174589 0 0 Z M-40.74609375 18.41064453 C-44.70436477 26.5845975 -44.82496698 35.44174436 -42 44 C-38.50110116 51.22533511 -33.23547749 56.51491168 -26 60 C-17.1682389 62.82864031 -7.79927157 62.7933158 0.63671875 58.72998047 C7.41037399 54.46683139 12.38143955 48.9034393 14.91015625 41.24267578 C16.84944509 32.30090766 16.13058147 23.81305732 11.21875 15.97265625 C6.14559937 9.37756043 0.3634006 5.16930264 -7.84375 3.46484375 C-21.85284755 1.8277653 -33.1423136 6.27328063 -40.74609375 18.41064453 Z " fill="#848484" transform="translate(47,3)"/>
<path d="M0 0 C1.32 0 2.64 0 4 0 C4 8.58 4 17.16 4 26 C2.68 26 1.36 26 0 26 C0 17.42 0 8.84 0 0 Z " fill="#848484" transform="translate(31,16)"/>
<path d="M0 0 C1.65 0.33 3.3 0.66 5 1 C4.67 2.32 4.34 3.64 4 5 C2.35 4.67 0.7 4.34 -1 4 C-0.67 2.68 -0.34 1.36 0 0 Z " fill="#848484" transform="translate(31,48)"/>
</svg>
