<?xml version="1.0" encoding="UTF-8"?>
<svg version="1.1" xmlns="http://www.w3.org/2000/svg" width="73" height="81">
<path d="M0 0 C5.81418022 4.82203571 8.59072687 9.16770462 9.69140625 16.703125 C10.22554676 24.3800857 7.46187811 30.51404556 2.75390625 36.453125 C3.31980469 36.85144531 3.88570312 37.24976563 4.46875 37.66015625 C5.20222656 38.18996094 5.93570313 38.71976563 6.69140625 39.265625 C7.42230469 39.78769531 8.15320312 40.30976562 8.90625 40.84765625 C10.75390625 42.453125 10.75390625 42.453125 11.75390625 45.453125 C11.25890625 46.443125 11.25890625 46.443125 10.75390625 47.453125 C8.10441856 47.85456253 6.33713874 47.8198042 4.0390625 46.375 C2.84334572 45.46447606 1.64934713 44.55169159 0.45703125 43.63671875 C-1.74876102 42.1037943 -3.57427209 41.60155954 -6.24609375 41.453125 C-7.23609375 41.783125 -8.22609375 42.113125 -9.24609375 42.453125 C-10.80630671 42.54734745 -12.370546 42.58303253 -13.93359375 42.578125 C-14.82304688 42.578125 -15.7125 42.578125 -16.62890625 42.578125 C-18.9820279 42.4657371 -21.0207396 42.09266248 -23.30859375 41.578125 C-29.72315372 41.37448818 -33.50813783 44.89373142 -38.04296875 49.1328125 C-44.36084788 55.91984107 -45.55320009 62.8486966 -46.03515625 71.9140625 C-46.24609375 74.453125 -46.24609375 74.453125 -47.24609375 76.453125 C-48.89609375 76.453125 -50.54609375 76.453125 -52.24609375 76.453125 C-55.07148068 70.80235115 -53.44741404 63.18410775 -51.74609375 57.390625 C-48.03103554 47.3404149 -41.44509973 40.69144785 -32.24609375 35.453125 C-32.59542969 34.92203125 -32.94476563 34.3909375 -33.3046875 33.84375 C-33.98724609 32.78414062 -33.98724609 32.78414062 -34.68359375 31.703125 C-35.13605469 31.00703125 -35.58851562 30.3109375 -36.0546875 29.59375 C-38.98933923 24.32099869 -38.99143631 18.15932379 -37.8203125 12.3359375 C-35.67011845 5.55557099 -31.09709448 1.13018425 -25.05859375 -2.421875 C-16.44606228 -5.86688759 -7.74662504 -5.33506699 0 0 Z M-28.05859375 8.515625 C-31.92458245 13.70709554 -31.89402288 18.09082088 -31.24609375 24.453125 C-28.58116264 29.88168838 -24.88970223 33.21944104 -19.43359375 35.765625 C-13.96320558 36.94551265 -9.92510834 36.35720978 -4.99609375 33.703125 C-0.76966291 30.24513613 2.25968839 27.03267437 3.02734375 21.47265625 C3.31444644 15.23369387 1.92570675 11.14375348 -2.24609375 6.453125 C-6.62695806 2.50589954 -11.10958178 1.86536838 -16.88671875 2.13671875 C-21.84376523 2.80148823 -24.87129271 4.81219851 -28.05859375 8.515625 Z " fill="#848484" transform="translate(54.24609375,4.546875)"/>
<path d="M0 0 C3.0831351 1.19899698 6.06279492 2.47700477 9 4 C10.1446875 2.9790625 10.1446875 2.9790625 11.3125 1.9375 C12.199375 1.298125 13.08625 0.65875 14 0 C14.99 0.33 15.98 0.66 17 1 C17.36923077 5.55384615 17.36923077 5.55384615 15.5 7.8125 C14.7575 8.4003125 14.7575 8.4003125 14 9 C15.22007944 11.6905528 15.22007944 11.6905528 17 14 C17.04080783 15.99958364 17.04254356 18.00045254 17 20 C13.31245243 19.50168276 11.39509338 18.89932357 9 16 C6.53199953 17.15173355 4.95216435 18.04783565 3 20 C0.375 19.625 0.375 19.625 -2 19 C-1.50168276 15.31245243 -0.89932357 13.39509338 2 11 C0.84826645 8.53199953 -0.04783565 6.95216435 -2 5 C-1.46428571 1.46428571 -1.46428571 1.46428571 0 0 Z " fill="#848484" transform="translate(56,56)"/>
</svg>
