<?xml version="1.0" encoding="UTF-8"?>
<svg version="1.1" xmlns="http://www.w3.org/2000/svg" width="73" height="81">
<path d="M0 0 C1.29088531 0.00045319 1.29088531 0.00045319 2.60784912 0.00091553 C3.98774017 0.03188324 3.98774017 0.03188324 5.39550781 0.06347656 C6.34427795 0.06913635 7.2930481 0.07479614 8.27056885 0.08062744 C11.29710617 0.10299547 14.3224541 0.15319299 17.34863281 0.20410156 C19.40200112 0.224166 21.455388 0.24241686 23.50878906 0.25878906 C28.53919437 0.30286176 33.56871202 0.37189265 38.59863281 0.45410156 C38.59863281 2.10410156 38.59863281 3.75410156 38.59863281 5.45410156 C17.80863281 5.94910156 17.80863281 5.94910156 -3.40136719 6.45410156 C-3.40136719 27.57410156 -3.40136719 48.69410156 -3.40136719 70.45410156 C24.81363281 69.95910156 24.81363281 69.95910156 53.59863281 69.45410156 C53.92863281 54.60410156 54.25863281 39.75410156 54.59863281 24.45410156 C56.24863281 24.45410156 57.89863281 24.45410156 59.59863281 24.45410156 C59.64927437 31.23507504 59.68434165 38.01599989 59.70849609 44.79711914 C59.71856389 47.10475487 59.73221905 49.41237781 59.74951172 51.7199707 C59.77372569 55.03372348 59.78510807 58.34730783 59.79394531 61.66113281 C59.80426788 62.69559036 59.81459045 63.73004791 59.82522583 64.79585266 C59.82537689 65.75662216 59.82552795 66.71739166 59.82568359 67.70727539 C59.83012482 68.5533284 59.83456604 69.39938141 59.83914185 70.27107239 C59.59863281 72.45410156 59.59863281 72.45410156 57.59863281 75.45410156 C54.94189453 75.83505249 54.94189453 75.83505249 51.52832031 75.84228516 C49.61623779 75.85646988 49.61623779 75.85646988 47.66552734 75.87094116 C46.26822602 75.86557164 44.87092752 75.85941874 43.47363281 75.85253906 C42.0463852 75.85455913 40.6191386 75.85747 39.19189453 75.86123657 C36.19911889 75.86566315 33.20661166 75.85921847 30.21386719 75.84521484 C26.37334835 75.82812236 22.53345839 75.83796181 18.69296265 75.85593224 C15.74531293 75.8667613 12.79781286 75.86332787 9.85015869 75.85554886 C8.43393886 75.8535444 7.01770555 75.85601474 5.60150146 75.86298752 C3.62398531 75.87058668 1.64642166 75.856955 -0.33105469 75.84228516 C-1.45753418 75.83989838 -2.58401367 75.8375116 -3.74462891 75.83505249 C-4.62135254 75.70933868 -5.49807617 75.58362488 -6.40136719 75.45410156 C-8.79908738 71.85752127 -8.66447651 70.21204317 -8.69189453 65.93481445 C-8.69861176 65.27755875 -8.70532898 64.62030304 -8.71224976 63.94313049 C-8.73124417 61.77092933 -8.73515448 59.59903685 -8.73730469 57.42675781 C-8.74373121 55.91604993 -8.75045946 54.40534331 -8.75747681 52.89463806 C-8.76945285 49.72798781 -8.77315726 46.56144669 -8.77197266 43.39477539 C-8.77176935 39.33805766 -8.79908142 35.28203956 -8.83351707 31.22548771 C-8.85575917 28.10534962 -8.85981105 24.98538069 -8.8587532 21.86517143 C-8.86111285 20.36963932 -8.86995691 18.87410281 -8.88541794 17.37864876 C-8.90502689 15.28619555 -8.89926226 13.19526114 -8.88720703 11.1027832 C-8.89148209 9.31766075 -8.89148209 9.31766075 -8.89584351 7.49647522 C-8.40136719 4.45410156 -8.40136719 4.45410156 -6.64608765 2.06694031 C-4.13702164 0.26416845 -3.04628873 -0.03583869 0 0 Z " fill="#848484" transform="translate(9.4013671875,5.5458984375)"/>
<path d="M0 0 C1.65 0 3.3 0 5 0 C5 3.3 5 6.6 5 10 C7.64 10 10.28 10 13 10 C13 11.65 13 13.3 13 15 C10.36 15 7.72 15 5 15 C5 18.3 5 21.6 5 25 C3.35 25 1.7 25 0 25 C0 21.7 0 18.4 0 15 C-2.97 15 -5.94 15 -9 15 C-9 13.35 -9 11.7 -9 10 C-6.03 10 -3.06 10 0 10 C0 6.7 0 3.4 0 0 Z " fill="#848484" transform="translate(60,1)"/>
<path d="M0 0 C9.9 0 19.8 0 30 0 C30 1.98 30 3.96 30 6 C20.1 6 10.2 6 0 6 C0 4.02 0 2.04 0 0 Z " fill="#838383" transform="translate(20,60)"/>
<path d="M0 0 C9.9 0 19.8 0 30 0 C30 1.65 30 3.3 30 5 C20.1 5 10.2 5 0 5 C0 3.35 0 1.7 0 0 Z " fill="#848484" transform="translate(20,46)"/>
<path d="M0 0 C9.9 0 19.8 0 30 0 C30 1.65 30 3.3 30 5 C20.1 5 10.2 5 0 5 C0 3.35 0 1.7 0 0 Z " fill="#848484" transform="translate(20,32)"/>
</svg>
